<svg width="24" height="24" viewBox="0 0 24 24" fill="none" xmlns="http://www.w3.org/2000/svg">
<path fill-rule="evenodd" clip-rule="evenodd" d="M10.7464 5.83314C8.94627 4.033 6.02765 4.033 4.22751 5.83314C2.47038 7.59027 2.42462 10.4167 4.13213 12.2091C5.81254 13.973 7.80028 16.0347 9.42942 17.6537C10.2452 18.4643 10.9636 19.1566 11.5056 19.6433C11.735 19.8493 11.9244 20.0109 12.0715 20.1268C12.2185 20.0109 12.408 19.8493 12.6374 19.6433C13.1793 19.1566 13.8978 18.4644 14.7135 17.6537C16.3426 16.0347 18.3304 13.973 20.0108 12.2091C21.7183 10.4167 21.6725 7.59027 19.9154 5.83315C18.1153 4.033 15.1967 4.033 13.3965 5.83315L12.0715 7.15819L10.7464 5.83314ZM3.16685 4.77248C5.55278 2.38655 9.42114 2.38655 11.8071 4.77248L12.0715 5.03687L12.3358 4.77248C14.7218 2.38655 18.5901 2.38655 20.9761 4.77249C23.3023 7.09871 23.3725 10.8549 21.0969 13.2437C19.4141 15.0102 17.4149 17.0839 15.7708 18.7177C14.95 19.5334 14.2102 20.2469 13.6396 20.7593C13.3559 21.0141 13.1022 21.2299 12.8951 21.3857C12.7929 21.4627 12.6868 21.5367 12.5845 21.5949C12.5333 21.624 12.4699 21.6568 12.3988 21.684C12.3366 21.7078 12.2185 21.7472 12.0714 21.7472C11.9244 21.7472 11.8063 21.7078 11.7441 21.684C11.673 21.6568 11.6096 21.624 11.5584 21.5949C11.4561 21.5367 11.35 21.4627 11.2478 21.3857C11.0408 21.2299 10.7871 21.0141 10.5034 20.7593C9.93272 20.2469 9.19295 19.5334 8.37208 18.7177C6.728 17.0839 4.72887 15.0102 3.04606 13.2437C0.770431 10.8549 0.840627 7.0987 3.16685 4.77248Z" fill="#000928"/>
</svg>
