<svg width="16" height="16" viewBox="0 0 32 32" fill="none" xmlns="http://www.w3.org/2000/svg"><path d="M21.6577 6.34131C22.1831 6.34119 22.7034 6.44459 23.1889 6.64561C23.6744 6.84664 24.1155 7.14134 24.487 7.51288C24.8586 7.88443 25.1533 8.32553 25.3543 8.81101C25.5553 9.29647 25.6587 9.81679 25.6586 10.3422C25.6585 10.8677 25.5548 11.388 25.3536 11.8733C25.1523 12.3587 24.8574 12.7997 24.4857 13.1711L20.9497 16.7071C20.5783 17.0785 20.1373 17.3732 19.652 17.5742C19.1667 17.7752 18.6466 17.8787 18.1213 17.8787C17.596 17.8787 17.0758 17.7752 16.5905 17.5742C16.1052 17.3732 15.6643 17.0785 15.2928 16.7071C14.7071 16.1213 13.7573 16.1213 13.1715 16.7071C12.5857 17.2929 12.5857 18.2426 13.1715 18.8284C13.8215 19.4784 14.5932 19.994 15.4425 20.3458C16.2918 20.6976 17.202 20.8787 18.1213 20.8787C19.0405 20.8787 19.9508 20.6976 20.8 20.3458C21.6493 19.994 22.421 19.4784 23.071 18.8284L26.6061 15.2934C27.2563 14.6436 27.7727 13.8715 28.1248 13.0224C28.477 12.1729 28.6584 11.2625 28.6586 10.3429C28.6588 9.42341 28.4779 8.51285 28.1261 7.66328C27.7743 6.8137 27.2586 6.04177 26.6084 5.39156C25.9582 4.74136 25.1862 4.22563 24.3366 3.87384C23.4871 3.52205 22.5765 3.34109 21.657 3.34131C20.7375 3.34152 19.827 3.5229 18.9776 3.87509C18.1284 4.22718 17.3569 4.7431 16.7071 5.39337L15.2511 6.84937C14.6653 7.43516 14.6653 8.38491 15.2511 8.97069C15.8368 9.55648 16.7866 9.55648 17.3724 8.97069L18.8284 7.51469C19.1997 7.14298 19.6412 6.84757 20.1266 6.64633C20.612 6.44508 21.1322 6.34143 21.6577 6.34131Z" fill="#000A14"/><path d="M12.3479 14.4258C12.8332 14.2248 13.3534 14.1213 13.8787 14.1213C14.4039 14.1213 14.9241 14.2248 15.4094 14.4258C15.8947 14.6268 16.3356 14.9215 16.7071 15.2929C17.2929 15.8787 18.2426 15.8787 18.8284 15.2929C19.4142 14.7071 19.4142 13.7574 18.8284 13.1716C18.1784 12.5216 17.4067 12.006 16.5574 11.6542C15.7082 11.3024 14.7979 11.1213 13.8787 11.1213C12.9594 11.1213 12.0491 11.3024 11.1999 11.6542C10.3506 12.006 9.57892 12.5216 8.92891 13.1716L5.39387 16.7066C4.74359 17.3564 4.22718 18.1284 3.87509 18.9776C3.5229 19.827 3.34152 20.7375 3.34131 21.6571C3.34109 22.5766 3.52205 23.4871 3.87384 24.3367C4.22563 25.1863 4.74136 25.9582 5.39156 26.6084C6.04177 27.2586 6.8137 27.7744 7.66328 28.1262C8.51285 28.4779 9.42341 28.6589 10.3429 28.6587C11.2625 28.6585 12.1729 28.4771 13.0224 28.1249C13.8715 27.7728 14.6431 27.2569 15.2929 26.6066L16.7486 25.1508C17.3344 24.5651 17.3344 23.6153 16.7486 23.0295C16.1629 22.4437 15.2131 22.4437 14.6273 23.0295L13.1715 24.4853C12.8002 24.857 12.3587 25.1524 11.8733 25.3537C11.388 25.5549 10.8677 25.6586 10.3422 25.6587C9.81679 25.6588 9.29647 25.5554 8.81101 25.3544C8.32553 25.1534 7.88443 24.8587 7.51288 24.4871C7.14134 24.1156 6.84664 23.6745 6.64561 23.189C6.44459 22.7035 6.34119 22.1832 6.34131 21.6578C6.34143 21.1323 6.44508 20.612 6.64633 20.1267C6.84757 19.6413 7.14248 19.2003 7.5142 18.8289L11.0502 15.2929C11.4217 14.9215 11.8626 14.6268 12.3479 14.4258Z" fill="#000A14"/></svg>
